<?xml version="1.0" encoding="UTF-8" standalone="no"?><svg xmlns="http://www.w3.org/2000/svg" xmlns:xlink="http://www.w3.org/1999/xlink" contentStyleType="text/css" height="346.8px" preserveAspectRatio="none" style="width:561px;height:346px;background:#FFFFFF;" version="1.1" viewBox="0 0 561 346" width="561px" zoomAndPan="magnify"><defs/><g><rect height="27.1312" style="stroke:#00000000;stroke-width:0.6;fill:none;" width="82.8" x="234.9" y="3"/><text fill="#000000" font-family="sans-serif" font-size="8.4" font-weight="bold" lengthAdjust="spacing" text-decoration="underline" textLength="76.8" x="237.9" y="14.7199">KVV class diagram</text><text fill="#000000" font-family="sans-serif" font-size="8.4" font-weight="bold" lengthAdjust="spacing" textLength="2.4" x="275.1" y="25.2855"> </text><!--MD5=[718e4fa1372994e5f8c3b3125e3837b3]
cluster com.main.dhbworld.KVV--><g id="cluster_com.main.dhbworld.KVV"><path d="M5.1,37.3313 L106.5,37.3313 A2.25,2.25 0 0 1 108,38.8313 L112.2,51.4969 L555.3,51.4969 A1.5,1.5 0 0 1 556.8,52.9969 L556.8,307.0313 A1.5,1.5 0 0 1 555.3,308.5313 L5.1,308.5313 A1.5,1.5 0 0 1 3.6,307.0313 L3.6,38.8313 A1.5,1.5 0 0 1 5.1,37.3313 " style="stroke:#000000;stroke-width:0.8999999999999999;fill:none;"/><line style="stroke:#000000;stroke-width:0.8999999999999999;fill:none;" x1="3.6" x2="112.2" y1="51.4969" y2="51.4969"/><text fill="#000000" font-family="sans-serif" font-size="8.4" font-weight="bold" lengthAdjust="spacing" textLength="100.8" x="6" y="47.2512">com.main.dhbworld.KVV</text></g><!--MD5=[045806c4cf4d93b9b12c1c5e6454a2e2]
class com.main.dhbworld.KVV.KVVActivity--><g id="elem_com.main.dhbworld.KVV.KVVActivity"><rect codeLine="5" fill="#F1F1F1" height="240.1125" id="com.main.dhbworld.KVV.KVVActivity" rx="1.5" ry="1.5" style="stroke:#181818;stroke-width:0.3;" width="222" x="168.6" y="58.9313"/><ellipse cx="255.75" cy="68.5313" fill="#ADD1B2" rx="6.6" ry="6.6" style="stroke:#181818;stroke-width:0.6;"/><path d="M256.95,66.4312 Q257.0719,66.1313 257.2125,65.9813 Q257.3531,65.8313 257.5125,65.8313 Q257.7938,65.8313 257.9719,66 Q258.15,66.1688 258.15,66.5625 L258.15,67.5 Q258.15,67.8938 257.9813,68.0625 Q257.8125,68.2313 257.55,68.2313 Q257.3156,68.2313 257.1656,68.1281 Q257.0156,68.025 256.95,67.7531 Q256.9219,67.5656 256.8187,67.4625 Q256.6312,67.2656 256.2938,67.1531 Q255.9562,67.0313 255.6187,67.0313 Q255.1969,67.0313 254.8406,67.2 Q254.4937,67.3687 254.2219,67.7437 Q253.95,68.1187 253.95,68.6344 L253.95,69.1875 Q253.95,69.8062 254.4562,70.2188 Q254.9625,70.6313 255.8625,70.6313 Q256.3969,70.6313 256.7719,70.5094 Q256.9875,70.4438 257.2313,70.2281 Q257.3906,70.1063 257.475,70.0688 Q257.5594,70.0313 257.6625,70.0313 Q257.8594,70.0313 258,70.1906 Q258.15,70.3406 258.15,70.5562 Q258.15,70.7625 257.9437,71.0063 Q257.6438,71.3625 257.1656,71.5594 Q256.5375,71.8313 255.7687,71.8313 Q254.8687,71.8313 254.1469,71.475 Q253.5656,71.1938 253.1531,70.5844 Q252.75,69.975 252.75,69.2531 L252.75,68.5969 Q252.75,67.8469 253.1063,67.1906 Q253.4719,66.5344 254.1,66.1875 Q254.7375,65.8313 255.45,65.8313 Q255.8813,65.8313 256.2562,65.9813 Q256.6312,66.1313 256.95,66.4312 Z " fill="#000000"/><text fill="#000000" font-family="sans-serif" font-size="8.4" lengthAdjust="spacing" textLength="42.6" x="268.05" y="71.9684">KVVActivity</text><line style="stroke:#181818;stroke-width:0.3;" x1="169.2" x2="390" y1="78.1313" y2="78.1313"/><polygon fill="none" points="175.2,82.3313,172.8,85.9312,177.6,85.9312" style="stroke:#1963A0;stroke-width:0.6;"/><text fill="#000000" font-family="sans-serif" font-size="8.4" lengthAdjust="spacing" textLength="130.2" x="180.6" y="89.2512">departures : ArrayList&lt;Departure&gt;</text><polygon fill="none" points="175.2,92.8969,172.8,96.4969,177.6,96.4969" style="stroke:#1963A0;stroke-width:0.6;"/><text fill="#000000" font-family="sans-serif" font-size="8.4" lengthAdjust="spacing" textLength="118.2" x="180.6" y="99.8168">localDateTime : LocalDateTime</text><polygon fill="none" points="175.2,103.4625,172.8,107.0625,177.6,107.0625" style="stroke:#1963A0;stroke-width:0.6;"/><text fill="#000000" font-family="sans-serif" font-size="8.4" lengthAdjust="spacing" textLength="169.2" x="180.6" y="110.3824">progressIndicator : CircularProgressIndicator</text><polygon fill="none" points="175.2,114.0281,172.8,117.6281,177.6,117.6281" style="stroke:#1963A0;stroke-width:0.6;"/><text fill="#000000" font-family="sans-serif" font-size="8.4" lengthAdjust="spacing" textLength="105" x="180.6" y="120.948">recyclerView : RecyclerView</text><polygon fill="none" points="175.2,124.5938,172.8,128.1938,177.6,128.1938" style="stroke:#1963A0;stroke-width:0.6;"/><text fill="#000000" font-family="sans-serif" font-size="8.4" lengthAdjust="spacing" textLength="113.4" x="180.6" y="131.5137">refreshButton : MaterialButton</text><polygon fill="none" points="175.2,135.1594,172.8,138.7594,177.6,138.7594" style="stroke:#1963A0;stroke-width:0.6;"/><text fill="#000000" font-family="sans-serif" font-size="8.4" lengthAdjust="spacing" textLength="151.2" x="180.6" y="142.0793">textViewDepartureDateSelect : TextView</text><polygon fill="none" points="175.2,145.725,172.8,149.325,177.6,149.325" style="stroke:#1963A0;stroke-width:0.6;"/><text fill="#000000" font-family="sans-serif" font-size="8.4" lengthAdjust="spacing" textLength="151.8" x="180.6" y="152.6449">textViewDepartureTimeSelect : TextView</text><polygon fill="none" points="175.2,156.2906,172.8,159.8906,177.6,159.8906" style="stroke:#1963A0;stroke-width:0.6;"/><text fill="#000000" font-family="sans-serif" font-size="8.4" lengthAdjust="spacing" textLength="205.8" x="180.6" y="163.2105">tramDepartureDateSelectCardView : MaterialCardView</text><polygon fill="none" points="175.2,166.8563,172.8,170.4562,177.6,170.4562" style="stroke:#1963A0;stroke-width:0.6;"/><text fill="#000000" font-family="sans-serif" font-size="8.4" lengthAdjust="spacing" textLength="206.4" x="180.6" y="173.7762">tramDepartureTimeSelectCardView : MaterialCardView</text><polygon fill="none" points="175.2,177.4219,172.8,181.0219,177.6,181.0219" style="stroke:#1963A0;stroke-width:0.6;"/><text fill="#000000" font-family="sans-serif" font-size="8.4" lengthAdjust="spacing" textLength="164.4" x="180.6" y="184.3418">tramDisruptionCardView : MaterialCardView</text><polygon fill="none" points="175.2,187.9875,172.8,191.5875,177.6,191.5875" style="stroke:#1963A0;stroke-width:0.6;"/><text fill="#000000" font-family="sans-serif" font-size="8.4" lengthAdjust="spacing" textLength="112.2" x="180.6" y="194.9074">tramDisruptionTitle : TextView</text><line style="stroke:#181818;stroke-width:0.3;" x1="169.2" x2="390" y1="199.1531" y2="199.1531"/><ellipse cx="175.2" cy="205.7531" fill="#84BE84" rx="1.8" ry="1.8" style="stroke:#038048;stroke-width:0.6;"/><text fill="#000000" font-family="sans-serif" font-size="8.4" lengthAdjust="spacing" textLength="62.4" x="180.6" y="210.273">onDataLoaded()</text><polygon fill="#FFFF44" points="175.2,213.3188,177.6,215.7188,175.2,218.1188,172.8,215.7188" style="stroke:#B38D22;stroke-width:0.6;"/><text fill="#000000" font-family="sans-serif" font-size="8.4" lengthAdjust="spacing" textLength="41.4" x="180.6" y="220.8387">onCreate()</text><rect fill="#F24D5C" height="3.6" style="stroke:#C82930;stroke-width:0.6;" width="3.6" x="173.4" y="225.0844"/><text fill="#000000" font-family="sans-serif" font-size="8.4" lengthAdjust="spacing" textLength="64.2" x="180.6" y="231.4043">dateSelectClick()</text><rect fill="#F24D5C" height="3.6" style="stroke:#C82930;stroke-width:0.6;" width="3.6" x="173.4" y="235.65"/><text fill="#000000" font-family="sans-serif" font-size="8.4" lengthAdjust="spacing" textLength="38.4" x="180.6" y="241.9699">initViews()</text><rect fill="#F24D5C" height="3.6" style="stroke:#C82930;stroke-width:0.6;" width="3.6" x="173.4" y="246.2156"/><text fill="#000000" font-family="sans-serif" font-size="8.4" lengthAdjust="spacing" textLength="33" x="180.6" y="252.5355">refresh()</text><rect fill="#F24D5C" height="3.6" style="stroke:#C82930;stroke-width:0.6;" width="3.6" x="173.4" y="256.7813"/><text fill="#000000" font-family="sans-serif" font-size="8.4" lengthAdjust="spacing" textLength="57" x="180.6" y="263.1012">setupAdapter()</text><rect fill="#F24D5C" height="3.6" style="stroke:#C82930;stroke-width:0.6;" width="3.6" x="173.4" y="267.3469"/><text fill="#000000" font-family="sans-serif" font-size="8.4" lengthAdjust="spacing" textLength="79.8" x="180.6" y="273.6668">setupClickListeners()</text><rect fill="#F24D5C" height="3.6" style="stroke:#C82930;stroke-width:0.6;" width="3.6" x="173.4" y="277.9125"/><text fill="#000000" font-family="sans-serif" font-size="8.4" lengthAdjust="spacing" textLength="64.8" x="180.6" y="284.2324">setupTextViews()</text><rect fill="#F24D5C" height="3.6" style="stroke:#C82930;stroke-width:0.6;" width="3.6" x="173.4" y="288.4781"/><text fill="#000000" font-family="sans-serif" font-size="8.4" lengthAdjust="spacing" textLength="63" x="180.6" y="294.798">timeSelectClick()</text></g><g id="elem_com.main.dhbworld.KVV.GMN8718"><path d="M13.2,166.0313 L13.2,191.6531 A0,0 0 0 0 13.2,191.6531 L147.6,191.6531 A0,0 0 0 0 147.6,191.6531 L147.6,181.3312 L168.576,178.9313 L147.6,176.5313 L147.6,172.0313 L141.6,166.0313 L13.2,166.0313 A0,0 0 0 0 13.2,166.0313 " fill="#FEFFDD" style="stroke:#181818;stroke-width:0.3;"/><path d="M141.6,166.0313 L141.6,172.0313 L147.6,172.0313 L141.6,166.0313 " fill="#FEFFDD" style="stroke:#181818;stroke-width:0.3;"/><text fill="#000000" font-family="sans-serif" font-size="7.8" lengthAdjust="spacing" textLength="97.8" x="16.8" y="177.1283">Uses ArrayList of Departues</text><text fill="#000000" font-family="sans-serif" font-size="7.8" lengthAdjust="spacing" textLength="121.8" x="16.8" y="186.9393">instead of just one departure object</text></g><!--MD5=[90e1e234198ad4caa877916ee770bcb4]
class com.main.dhbworld.KVV.Departure--><g id="elem_com.main.dhbworld.KVV.Departure"><rect codeLine="32" fill="#F1F1F1" height="240.1125" id="com.main.dhbworld.KVV.Departure" rx="1.5" ry="1.5" style="stroke:#181818;stroke-width:0.3;" width="135.6" x="411.6" y="58.9313"/><ellipse cx="457.65" cy="68.5313" fill="#ADD1B2" rx="6.6" ry="6.6" style="stroke:#181818;stroke-width:0.6;"/><path d="M458.85,66.4312 Q458.9719,66.1313 459.1125,65.9813 Q459.2531,65.8313 459.4125,65.8313 Q459.6937,65.8313 459.8719,66 Q460.05,66.1688 460.05,66.5625 L460.05,67.5 Q460.05,67.8938 459.8812,68.0625 Q459.7125,68.2313 459.45,68.2313 Q459.2156,68.2313 459.0656,68.1281 Q458.9156,68.025 458.85,67.7531 Q458.8219,67.5656 458.7188,67.4625 Q458.5313,67.2656 458.1937,67.1531 Q457.8563,67.0313 457.5188,67.0313 Q457.0969,67.0313 456.7406,67.2 Q456.3938,67.3687 456.1219,67.7437 Q455.85,68.1187 455.85,68.6344 L455.85,69.1875 Q455.85,69.8062 456.3563,70.2188 Q456.8625,70.6313 457.7625,70.6313 Q458.2969,70.6313 458.6719,70.5094 Q458.8875,70.4438 459.1312,70.2281 Q459.2906,70.1063 459.375,70.0688 Q459.4594,70.0313 459.5625,70.0313 Q459.7594,70.0313 459.9,70.1906 Q460.05,70.3406 460.05,70.5562 Q460.05,70.7625 459.8438,71.0063 Q459.5438,71.3625 459.0656,71.5594 Q458.4375,71.8313 457.6688,71.8313 Q456.7688,71.8313 456.0469,71.475 Q455.4656,71.1938 455.0531,70.5844 Q454.65,69.975 454.65,69.2531 L454.65,68.5969 Q454.65,67.8469 455.0062,67.1906 Q455.3719,66.5344 456,66.1875 Q456.6375,65.8313 457.35,65.8313 Q457.7813,65.8313 458.1563,65.9813 Q458.5313,66.1313 458.85,66.4312 Z " fill="#000000"/><text fill="#000000" font-family="sans-serif" font-size="8.4" lengthAdjust="spacing" textLength="38.4" x="469.95" y="71.9684">Departure</text><line style="stroke:#181818;stroke-width:0.3;" x1="412.2" x2="546.6" y1="78.1313" y2="78.1313"/><rect fill="none" height="3.6" style="stroke:#C82930;stroke-width:0.6;" width="3.6" x="416.4" y="82.9312"/><text fill="#000000" font-family="sans-serif" font-size="8.4" lengthAdjust="spacing" textLength="60.6" x="423.6" y="89.2512">attribute : String</text><rect fill="none" height="3.6" style="stroke:#C82930;stroke-width:0.6;" width="3.6" x="416.4" y="93.4969"/><text fill="#000000" font-family="sans-serif" font-size="8.4" lengthAdjust="spacing" textLength="120" x="423.6" y="99.8168">departureTime : LocalDateTime</text><rect fill="none" height="3.6" style="stroke:#C82930;stroke-width:0.6;" width="3.6" x="416.4" y="104.0625"/><text fill="#000000" font-family="sans-serif" font-size="8.4" lengthAdjust="spacing" textLength="70.8" x="423.6" y="110.3824">destination : String</text><rect fill="none" height="3.6" style="stroke:#C82930;stroke-width:0.6;" width="3.6" x="416.4" y="114.6281"/><text fill="#000000" font-family="sans-serif" font-size="8.4" lengthAdjust="spacing" textLength="42.6" x="423.6" y="120.948">line : String</text><rect fill="none" height="3.6" style="stroke:#C82930;stroke-width:0.6;" width="3.6" x="416.4" y="125.1938"/><text fill="#000000" font-family="sans-serif" font-size="8.4" lengthAdjust="spacing" textLength="82.8" x="423.6" y="131.5137">notServiced : boolean</text><rect fill="none" height="3.6" style="stroke:#C82930;stroke-width:0.6;" width="3.6" x="416.4" y="135.7594"/><text fill="#000000" font-family="sans-serif" font-size="8.4" lengthAdjust="spacing" textLength="60" x="423.6" y="142.0793">platform : String</text><line style="stroke:#181818;stroke-width:0.3;" x1="412.2" x2="546.6" y1="146.325" y2="146.325"/><ellipse cx="418.2" cy="152.925" fill="#84BE84" rx="1.8" ry="1.8" style="stroke:#038048;stroke-width:0.6;"/><text fill="#000000" font-family="sans-serif" font-size="8.4" lengthAdjust="spacing" textLength="44.4" x="423.6" y="157.4449">Departure()</text><ellipse cx="418.2" cy="163.4906" fill="#84BE84" rx="1.8" ry="1.8" style="stroke:#038048;stroke-width:0.6;"/><text fill="#000000" font-family="sans-serif" font-size="8.4" lengthAdjust="spacing" textLength="49.8" x="423.6" y="168.0105">getAttribute()</text><ellipse cx="418.2" cy="174.0563" fill="#84BE84" rx="1.8" ry="1.8" style="stroke:#038048;stroke-width:0.6;"/><text fill="#000000" font-family="sans-serif" font-size="8.4" lengthAdjust="spacing" textLength="75" x="423.6" y="178.5762">getDepartureTime()</text><ellipse cx="418.2" cy="184.6219" fill="#84BE84" rx="1.8" ry="1.8" style="stroke:#038048;stroke-width:0.6;"/><text fill="#000000" font-family="sans-serif" font-size="8.4" lengthAdjust="spacing" textLength="60.6" x="423.6" y="189.1418">getDestination()</text><ellipse cx="418.2" cy="195.1875" fill="#84BE84" rx="1.8" ry="1.8" style="stroke:#038048;stroke-width:0.6;"/><text fill="#000000" font-family="sans-serif" font-size="8.4" lengthAdjust="spacing" textLength="34.2" x="423.6" y="199.7074">getLine()</text><ellipse cx="418.2" cy="205.7531" fill="#84BE84" rx="1.8" ry="1.8" style="stroke:#038048;stroke-width:0.6;"/><text fill="#000000" font-family="sans-serif" font-size="8.4" lengthAdjust="spacing" textLength="49.2" x="423.6" y="210.273">getPlatform()</text><ellipse cx="418.2" cy="216.3188" fill="#84BE84" rx="1.8" ry="1.8" style="stroke:#038048;stroke-width:0.6;"/><text fill="#000000" font-family="sans-serif" font-size="8.4" lengthAdjust="spacing" textLength="57.6" x="423.6" y="220.8387">isNotServiced()</text><ellipse cx="418.2" cy="226.8844" fill="#84BE84" rx="1.8" ry="1.8" style="stroke:#038048;stroke-width:0.6;"/><text fill="#000000" font-family="sans-serif" font-size="8.4" lengthAdjust="spacing" textLength="49.2" x="423.6" y="231.4043">setAttribute()</text><ellipse cx="418.2" cy="237.45" fill="#84BE84" rx="1.8" ry="1.8" style="stroke:#038048;stroke-width:0.6;"/><text fill="#000000" font-family="sans-serif" font-size="8.4" lengthAdjust="spacing" textLength="74.4" x="423.6" y="241.9699">setDepartureTime()</text><ellipse cx="418.2" cy="248.0156" fill="#84BE84" rx="1.8" ry="1.8" style="stroke:#038048;stroke-width:0.6;"/><text fill="#000000" font-family="sans-serif" font-size="8.4" lengthAdjust="spacing" textLength="60" x="423.6" y="252.5355">setDestination()</text><ellipse cx="418.2" cy="258.5813" fill="#84BE84" rx="1.8" ry="1.8" style="stroke:#038048;stroke-width:0.6;"/><text fill="#000000" font-family="sans-serif" font-size="8.4" lengthAdjust="spacing" textLength="33.6" x="423.6" y="263.1012">setLine()</text><ellipse cx="418.2" cy="269.1469" fill="#84BE84" rx="1.8" ry="1.8" style="stroke:#038048;stroke-width:0.6;"/><text fill="#000000" font-family="sans-serif" font-size="8.4" lengthAdjust="spacing" textLength="63" x="423.6" y="273.6668">setNotServiced()</text><ellipse cx="418.2" cy="279.7125" fill="#84BE84" rx="1.8" ry="1.8" style="stroke:#038048;stroke-width:0.6;"/><text fill="#000000" font-family="sans-serif" font-size="8.4" lengthAdjust="spacing" textLength="48.6" x="423.6" y="284.2324">setPlatform()</text><ellipse cx="418.2" cy="290.2781" fill="#84BE84" rx="1.8" ry="1.8" style="stroke:#038048;stroke-width:0.6;"/><text fill="#000000" font-family="sans-serif" font-size="8.4" lengthAdjust="spacing" textLength="35.4" x="423.6" y="294.798">toString()</text></g><!--MD5=[556fd51fe8f2d2507dd2274e8926fa38]
link com.main.dhbworld.KVV.KVVActivity to com.main.dhbworld.KVV.Departure--><g id="link_com.main.dhbworld.KVV.KVVActivity_com.main.dhbworld.KVV.Departure"><path codeLine="56" d="M397.824,178.9313 C397.824,178.9313 401.814,178.9313 403.506,178.9313 " fill="none" id="com.main.dhbworld.KVV.KVVActivity-com.main.dhbworld.KVV.Departure" style="stroke:#181818;stroke-width:0.6;"/><polygon fill="#181818" points="411.432,178.9313,406.032,176.5313,408.432,178.9313,406.032,181.3312,411.432,178.9313" style="stroke:#181818;stroke-width:0.6;"/><line style="stroke:#181818;stroke-width:0.6;" x1="408.432" x2="403.632" y1="178.9313" y2="178.9313"/><polygon fill="none" points="390.624,178.9313,394.224,181.3312,397.824,178.9313,394.224,176.5313,390.624,178.9313" style="stroke:#181818;stroke-width:0.6;"/></g><rect height="30.1875" style="stroke:#00000000;stroke-width:0.6;fill:none;" width="236.4" x="316.2" y="312.1312"/><text fill="#888888" font-family="sans-serif" font-size="6" lengthAdjust="spacing" textLength="1.8" x="433.5" y="318.3598"> </text><text fill="#888888" font-family="sans-serif" font-size="6" lengthAdjust="spacing" textLength="1.8" x="433.5" y="325.9066"> </text><text fill="#888888" font-family="sans-serif" font-size="6" lengthAdjust="spacing" textLength="235.2" x="316.8" y="333.4535">PlantUML diagram generated by SketchIt! (https://bitbucket.org/pmesmeur/sketch.it)</text><text fill="#888888" font-family="sans-serif" font-size="6" lengthAdjust="spacing" textLength="236.4" x="316.2" y="341.0004">For more information about this tool, please contact philippe.mesmeur@gmail.com</text><!--MD5=[7abb682215b3f79246a797819e8c19b2]
@startuml

title __KVV class diagram__\n

  namespace com.main.dhbworld.KVV {
    class com.main.dhbworld.KVV.KVVActivity {
        ~ departures : ArrayList<Departure>
        ~ localDateTime : LocalDateTime
        ~ progressIndicator : CircularProgressIndicator
        ~ recyclerView : RecyclerView
        ~ refreshButton : MaterialButton
        ~ textViewDepartureDateSelect : TextView
        ~ textViewDepartureTimeSelect : TextView
        ~ tramDepartureDateSelectCardView : MaterialCardView
        ~ tramDepartureTimeSelectCardView : MaterialCardView
        ~ tramDisruptionCardView : MaterialCardView
        ~ tramDisruptionTitle : TextView
        + onDataLoaded()
        # onCreate()
        - dateSelectClick()
        - initViews()
        - refresh()
        - setupAdapter()
        - setupClickListeners()
        - setupTextViews()
        - timeSelectClick()
    }

    note left : Uses ArrayList of Departues\ninstead of just one departure object

  }
      namespace com.main.dhbworld.KVV {
        class com.main.dhbworld.KVV.Departure {
            - attribute : String
            - departureTime : LocalDateTime
            - destination : String
            - line : String
            - notServiced : boolean
            - platform : String
            + Departure()
            + getAttribute()
            + getDepartureTime()
            + getDestination()
            + getLine()
            + getPlatform()
            + isNotServiced()
            + setAttribute()
            + setDepartureTime()
            + setDestination()
            + setLine()
            + setNotServiced()
            + setPlatform()
            + toString()
        }
      }

    com.main.dhbworld.KVV.KVVActivity o-> com.main.dhbworld.KVV.Departure


right footer


PlantUML diagram generated by SketchIt! (https://bitbucket.org/pmesmeur/sketch.it)
For more information about this tool, please contact philippe.mesmeur@gmail.com
endfooter

@enduml

PlantUML version 1.2022.4(Sat Apr 09 15:29:17 CEST 2022)
(GPL source distribution)
Java Runtime: OpenJDK Runtime Environment
JVM: OpenJDK 64-Bit Server VM
Default Encoding: Cp1252
Language: de
Country: DE
--></g></svg>
