<?xml version="1.0" encoding="UTF-8" standalone="no"?><svg xmlns="http://www.w3.org/2000/svg" xmlns:xlink="http://www.w3.org/1999/xlink" contentStyleType="text/css" height="578px" preserveAspectRatio="none" style="width:935px;height:578px;background:#FFFFFF;" version="1.1" viewBox="0 0 935 578" width="935px" zoomAndPan="magnify"><defs/><g><rect height="45.2188" style="stroke:#00000000;stroke-width:1.0;fill:none;" width="138" x="391.5" y="5"/><text fill="#000000" font-family="sans-serif" font-size="14" font-weight="bold" lengthAdjust="spacing" text-decoration="underline" textLength="128" x="396.5" y="24.5332">KVV class diagram</text><text fill="#000000" font-family="sans-serif" font-size="14" font-weight="bold" lengthAdjust="spacing" textLength="4" x="458.5" y="42.1426"> </text><!--MD5=[718e4fa1372994e5f8c3b3125e3837b3]
cluster com.main.dhbworld.KVV--><g id="cluster_com.main.dhbworld.KVV"><path d="M8.5,62.2188 L177.5,62.2188 A3.75,3.75 0 0 1 180,64.7188 L187,85.8281 L925.5,85.8281 A2.5,2.5 0 0 1 928,88.3281 L928,511.7188 A2.5,2.5 0 0 1 925.5,514.2188 L8.5,514.2188 A2.5,2.5 0 0 1 6,511.7188 L6,64.7188 A2.5,2.5 0 0 1 8.5,62.2188 " style="stroke:#000000;stroke-width:1.5;fill:none;"/><line style="stroke:#000000;stroke-width:1.5;fill:none;" x1="6" x2="187" y1="85.8281" y2="85.8281"/><text fill="#000000" font-family="sans-serif" font-size="14" font-weight="bold" lengthAdjust="spacing" textLength="168" x="10" y="78.752">com.main.dhbworld.KVV</text></g><!--MD5=[045806c4cf4d93b9b12c1c5e6454a2e2]
class com.main.dhbworld.KVV.KVVActivity--><g id="elem_com.main.dhbworld.KVV.KVVActivity"><rect codeLine="5" fill="#F1F1F1" height="400.1875" id="com.main.dhbworld.KVV.KVVActivity" rx="2.5" ry="2.5" style="stroke:#181818;stroke-width:0.5;" width="370" x="281" y="98.2188"/><ellipse cx="426.25" cy="114.2188" fill="#ADD1B2" rx="11" ry="11" style="stroke:#181818;stroke-width:1.0;"/><path d="M428.25,110.7188 Q428.4531,110.2188 428.6875,109.9688 Q428.9219,109.7188 429.1875,109.7188 Q429.6563,109.7188 429.9531,110 Q430.25,110.2813 430.25,110.9375 L430.25,112.5 Q430.25,113.1563 429.9688,113.4375 Q429.6875,113.7188 429.25,113.7188 Q428.8594,113.7188 428.6094,113.5469 Q428.3594,113.375 428.25,112.9219 Q428.2031,112.6094 428.0313,112.4375 Q427.7188,112.1094 427.1563,111.9219 Q426.5938,111.7188 426.0313,111.7188 Q425.3281,111.7188 424.7344,112 Q424.1563,112.2813 423.7031,112.9063 Q423.25,113.5313 423.25,114.3906 L423.25,115.3125 Q423.25,116.3438 424.0938,117.0313 Q424.9375,117.7188 426.4375,117.7188 Q427.3281,117.7188 427.9531,117.5156 Q428.3125,117.4063 428.7188,117.0469 Q428.9844,116.8438 429.125,116.7813 Q429.2656,116.7188 429.4375,116.7188 Q429.7656,116.7188 430,116.9844 Q430.25,117.2344 430.25,117.5938 Q430.25,117.9375 429.9063,118.3438 Q429.4063,118.9375 428.6094,119.2656 Q427.5625,119.7188 426.2813,119.7188 Q424.7813,119.7188 423.5781,119.125 Q422.6094,118.6563 421.9219,117.6406 Q421.25,116.625 421.25,115.4219 L421.25,114.3281 Q421.25,113.0781 421.8438,111.9844 Q422.4531,110.8906 423.5,110.3125 Q424.5625,109.7188 425.75,109.7188 Q426.4688,109.7188 427.0938,109.9688 Q427.7188,110.2188 428.25,110.7188 Z " fill="#000000"/><text fill="#000000" font-family="sans-serif" font-size="14" lengthAdjust="spacing" textLength="71" x="446.75" y="119.9473">KVVActivity</text><line style="stroke:#181818;stroke-width:0.5;" x1="282" x2="650" y1="130.2188" y2="130.2188"/><polygon fill="none" points="292,137.2188,288,143.2188,296,143.2188" style="stroke:#1963A0;stroke-width:1.0;"/><text fill="#000000" font-family="sans-serif" font-size="14" lengthAdjust="spacing" textLength="217" x="301" y="148.752">departures : ArrayList&lt;Departure&gt;</text><polygon fill="none" points="292,154.8281,288,160.8281,296,160.8281" style="stroke:#1963A0;stroke-width:1.0;"/><text fill="#000000" font-family="sans-serif" font-size="14" lengthAdjust="spacing" textLength="197" x="301" y="166.3613">localDateTime : LocalDateTime</text><polygon fill="none" points="292,172.4375,288,178.4375,296,178.4375" style="stroke:#1963A0;stroke-width:1.0;"/><text fill="#000000" font-family="sans-serif" font-size="14" lengthAdjust="spacing" textLength="282" x="301" y="183.9707">progressIndicator : CircularProgressIndicator</text><polygon fill="none" points="292,190.0469,288,196.0469,296,196.0469" style="stroke:#1963A0;stroke-width:1.0;"/><text fill="#000000" font-family="sans-serif" font-size="14" lengthAdjust="spacing" textLength="175" x="301" y="201.5801">recyclerView : RecyclerView</text><polygon fill="none" points="292,207.6563,288,213.6563,296,213.6563" style="stroke:#1963A0;stroke-width:1.0;"/><text fill="#000000" font-family="sans-serif" font-size="14" lengthAdjust="spacing" textLength="189" x="301" y="219.1895">refreshButton : MaterialButton</text><polygon fill="none" points="292,225.2656,288,231.2656,296,231.2656" style="stroke:#1963A0;stroke-width:1.0;"/><text fill="#000000" font-family="sans-serif" font-size="14" lengthAdjust="spacing" textLength="252" x="301" y="236.7988">textViewDepartureDateSelect : TextView</text><polygon fill="none" points="292,242.875,288,248.875,296,248.875" style="stroke:#1963A0;stroke-width:1.0;"/><text fill="#000000" font-family="sans-serif" font-size="14" lengthAdjust="spacing" textLength="253" x="301" y="254.4082">textViewDepartureTimeSelect : TextView</text><polygon fill="none" points="292,260.4844,288,266.4844,296,266.4844" style="stroke:#1963A0;stroke-width:1.0;"/><text fill="#000000" font-family="sans-serif" font-size="14" lengthAdjust="spacing" textLength="343" x="301" y="272.0176">tramDepartureDateSelectCardView : MaterialCardView</text><polygon fill="none" points="292,278.0938,288,284.0938,296,284.0938" style="stroke:#1963A0;stroke-width:1.0;"/><text fill="#000000" font-family="sans-serif" font-size="14" lengthAdjust="spacing" textLength="344" x="301" y="289.627">tramDepartureTimeSelectCardView : MaterialCardView</text><polygon fill="none" points="292,295.7031,288,301.7031,296,301.7031" style="stroke:#1963A0;stroke-width:1.0;"/><text fill="#000000" font-family="sans-serif" font-size="14" lengthAdjust="spacing" textLength="274" x="301" y="307.2363">tramDisruptionCardView : MaterialCardView</text><polygon fill="none" points="292,313.3125,288,319.3125,296,319.3125" style="stroke:#1963A0;stroke-width:1.0;"/><text fill="#000000" font-family="sans-serif" font-size="14" lengthAdjust="spacing" textLength="187" x="301" y="324.8457">tramDisruptionTitle : TextView</text><line style="stroke:#181818;stroke-width:0.5;" x1="282" x2="650" y1="331.9219" y2="331.9219"/><ellipse cx="292" cy="342.9219" fill="#84BE84" rx="3" ry="3" style="stroke:#038048;stroke-width:1.0;"/><text fill="#000000" font-family="sans-serif" font-size="14" lengthAdjust="spacing" textLength="104" x="301" y="350.4551">onDataLoaded()</text><polygon fill="#FFFF44" points="292,355.5313,296,359.5313,292,363.5313,288,359.5313" style="stroke:#B38D22;stroke-width:1.0;"/><text fill="#000000" font-family="sans-serif" font-size="14" lengthAdjust="spacing" textLength="69" x="301" y="368.0645">onCreate()</text><rect fill="#F24D5C" height="6" style="stroke:#C82930;stroke-width:1.0;" width="6" x="289" y="375.1406"/><text fill="#000000" font-family="sans-serif" font-size="14" lengthAdjust="spacing" textLength="107" x="301" y="385.6738">dateSelectClick()</text><rect fill="#F24D5C" height="6" style="stroke:#C82930;stroke-width:1.0;" width="6" x="289" y="392.75"/><text fill="#000000" font-family="sans-serif" font-size="14" lengthAdjust="spacing" textLength="64" x="301" y="403.2832">initViews()</text><rect fill="#F24D5C" height="6" style="stroke:#C82930;stroke-width:1.0;" width="6" x="289" y="410.3594"/><text fill="#000000" font-family="sans-serif" font-size="14" lengthAdjust="spacing" textLength="55" x="301" y="420.8926">refresh()</text><rect fill="#F24D5C" height="6" style="stroke:#C82930;stroke-width:1.0;" width="6" x="289" y="427.9688"/><text fill="#000000" font-family="sans-serif" font-size="14" lengthAdjust="spacing" textLength="95" x="301" y="438.502">setupAdapter()</text><rect fill="#F24D5C" height="6" style="stroke:#C82930;stroke-width:1.0;" width="6" x="289" y="445.5781"/><text fill="#000000" font-family="sans-serif" font-size="14" lengthAdjust="spacing" textLength="133" x="301" y="456.1113">setupClickListeners()</text><rect fill="#F24D5C" height="6" style="stroke:#C82930;stroke-width:1.0;" width="6" x="289" y="463.1875"/><text fill="#000000" font-family="sans-serif" font-size="14" lengthAdjust="spacing" textLength="108" x="301" y="473.7207">setupTextViews()</text><rect fill="#F24D5C" height="6" style="stroke:#C82930;stroke-width:1.0;" width="6" x="289" y="480.7969"/><text fill="#000000" font-family="sans-serif" font-size="14" lengthAdjust="spacing" textLength="105" x="301" y="491.3301">timeSelectClick()</text></g><g id="elem_com.main.dhbworld.KVV.GMN8947"><path d="M22,276.7188 L22,319.4219 A0,0 0 0 0 22,319.4219 L246,319.4219 A0,0 0 0 0 246,319.4219 L246,302.2188 L280.96,298.2188 L246,294.2188 L246,286.7188 L236,276.7188 L22,276.7188 A0,0 0 0 0 22,276.7188 " fill="#FEFFDD" style="stroke:#181818;stroke-width:0.5;"/><path d="M236,276.7188 L236,286.7188 L246,286.7188 L236,276.7188 " fill="#FEFFDD" style="stroke:#181818;stroke-width:0.5;"/><text fill="#000000" font-family="sans-serif" font-size="13" lengthAdjust="spacing" textLength="163" x="28" y="295.2139">Uses ArrayList of Departues</text><text fill="#000000" font-family="sans-serif" font-size="13" lengthAdjust="spacing" textLength="203" x="28" y="311.5654">instead of just one departure object</text></g><!--MD5=[90e1e234198ad4caa877916ee770bcb4]
class com.main.dhbworld.KVV.Departure--><g id="elem_com.main.dhbworld.KVV.Departure"><rect codeLine="32" fill="#F1F1F1" height="276.9219" id="com.main.dhbworld.KVV.Departure" rx="2.5" ry="2.5" style="stroke:#181818;stroke-width:0.5;" width="226" x="686" y="159.7188"/><ellipse cx="762.75" cy="175.7188" fill="#ADD1B2" rx="11" ry="11" style="stroke:#181818;stroke-width:1.0;"/><path d="M764.75,172.2188 Q764.9531,171.7188 765.1875,171.4688 Q765.4219,171.2188 765.6875,171.2188 Q766.1563,171.2188 766.4531,171.5 Q766.75,171.7813 766.75,172.4375 L766.75,174 Q766.75,174.6563 766.4688,174.9375 Q766.1875,175.2188 765.75,175.2188 Q765.3594,175.2188 765.1094,175.0469 Q764.8594,174.875 764.75,174.4219 Q764.7031,174.1094 764.5313,173.9375 Q764.2188,173.6094 763.6563,173.4219 Q763.0938,173.2188 762.5313,173.2188 Q761.8281,173.2188 761.2344,173.5 Q760.6563,173.7813 760.2031,174.4063 Q759.75,175.0313 759.75,175.8906 L759.75,176.8125 Q759.75,177.8438 760.5938,178.5313 Q761.4375,179.2188 762.9375,179.2188 Q763.8281,179.2188 764.4531,179.0156 Q764.8125,178.9063 765.2188,178.5469 Q765.4844,178.3438 765.625,178.2813 Q765.7656,178.2188 765.9375,178.2188 Q766.2656,178.2188 766.5,178.4844 Q766.75,178.7344 766.75,179.0938 Q766.75,179.4375 766.4063,179.8438 Q765.9063,180.4375 765.1094,180.7656 Q764.0625,181.2188 762.7813,181.2188 Q761.2813,181.2188 760.0781,180.625 Q759.1094,180.1563 758.4219,179.1406 Q757.75,178.125 757.75,176.9219 L757.75,175.8281 Q757.75,174.5781 758.3438,173.4844 Q758.9531,172.3906 760,171.8125 Q761.0625,171.2188 762.25,171.2188 Q762.9688,171.2188 763.5938,171.4688 Q764.2188,171.7188 764.75,172.2188 Z " fill="#000000"/><text fill="#000000" font-family="sans-serif" font-size="14" lengthAdjust="spacing" textLength="64" x="783.25" y="181.4473">Departure</text><line style="stroke:#181818;stroke-width:0.5;" x1="687" x2="911" y1="191.7188" y2="191.7188"/><rect fill="none" height="6" style="stroke:#C82930;stroke-width:1.0;" width="6" x="694" y="199.7188"/><text fill="#000000" font-family="sans-serif" font-size="14" lengthAdjust="spacing" textLength="101" x="706" y="210.252">attribute : String</text><rect fill="none" height="6" style="stroke:#C82930;stroke-width:1.0;" width="6" x="694" y="217.3281"/><text fill="#000000" font-family="sans-serif" font-size="14" lengthAdjust="spacing" textLength="200" x="706" y="227.8613">departureTime : LocalDateTime</text><rect fill="none" height="6" style="stroke:#C82930;stroke-width:1.0;" width="6" x="694" y="234.9375"/><text fill="#000000" font-family="sans-serif" font-size="14" lengthAdjust="spacing" textLength="118" x="706" y="245.4707">destination : String</text><rect fill="none" height="6" style="stroke:#C82930;stroke-width:1.0;" width="6" x="694" y="252.5469"/><text fill="#000000" font-family="sans-serif" font-size="14" lengthAdjust="spacing" textLength="71" x="706" y="263.0801">line : String</text><rect fill="none" height="6" style="stroke:#C82930;stroke-width:1.0;" width="6" x="694" y="270.1563"/><text fill="#000000" font-family="sans-serif" font-size="14" lengthAdjust="spacing" textLength="138" x="706" y="280.6895">notServiced : boolean</text><rect fill="none" height="6" style="stroke:#C82930;stroke-width:1.0;" width="6" x="694" y="287.7656"/><text fill="#000000" font-family="sans-serif" font-size="14" lengthAdjust="spacing" textLength="100" x="706" y="298.2988">platform : String</text><line style="stroke:#181818;stroke-width:0.5;" x1="687" x2="911" y1="305.375" y2="305.375"/><ellipse cx="697" cy="316.375" fill="#84BE84" rx="3" ry="3" style="stroke:#038048;stroke-width:1.0;"/><text fill="#000000" font-family="sans-serif" font-size="14" lengthAdjust="spacing" textLength="74" x="706" y="323.9082">Departure()</text><ellipse cx="697" cy="333.9844" fill="#84BE84" rx="3" ry="3" style="stroke:#038048;stroke-width:1.0;"/><text fill="#000000" font-family="sans-serif" font-size="14" lengthAdjust="spacing" textLength="83" x="706" y="341.5176">getAttribute()</text><ellipse cx="697" cy="351.5938" fill="#84BE84" rx="3" ry="3" style="stroke:#038048;stroke-width:1.0;"/><text fill="#000000" font-family="sans-serif" font-size="14" lengthAdjust="spacing" textLength="125" x="706" y="359.127">getDepartureTime()</text><ellipse cx="697" cy="369.2031" fill="#84BE84" rx="3" ry="3" style="stroke:#038048;stroke-width:1.0;"/><text fill="#000000" font-family="sans-serif" font-size="14" lengthAdjust="spacing" textLength="101" x="706" y="376.7363">getDestination()</text><ellipse cx="697" cy="386.8125" fill="#84BE84" rx="3" ry="3" style="stroke:#038048;stroke-width:1.0;"/><text fill="#000000" font-family="sans-serif" font-size="14" lengthAdjust="spacing" textLength="57" x="706" y="394.3457">getLine()</text><ellipse cx="697" cy="404.4219" fill="#84BE84" rx="3" ry="3" style="stroke:#038048;stroke-width:1.0;"/><text fill="#000000" font-family="sans-serif" font-size="14" lengthAdjust="spacing" textLength="82" x="706" y="411.9551">getPlatform()</text><ellipse cx="697" cy="422.0313" fill="#84BE84" rx="3" ry="3" style="stroke:#038048;stroke-width:1.0;"/><text fill="#000000" font-family="sans-serif" font-size="14" lengthAdjust="spacing" textLength="96" x="706" y="429.5645">isNotServiced()</text></g><!--MD5=[556fd51fe8f2d2507dd2274e8926fa38]
link com.main.dhbworld.KVV.KVVActivity to com.main.dhbworld.KVV.Departure--><g id="link_com.main.dhbworld.KVV.KVVActivity_com.main.dhbworld.KVV.Departure"><path codeLine="49" d="M663.04,298.2188 C663.04,298.2188 669.69,298.2188 672.51,298.2188 " fill="none" id="com.main.dhbworld.KVV.KVVActivity-com.main.dhbworld.KVV.Departure" style="stroke:#181818;stroke-width:1.0;"/><polygon fill="#181818" points="685.72,298.2188,676.72,294.2188,680.72,298.2188,676.72,302.2188,685.72,298.2188" style="stroke:#181818;stroke-width:1.0;"/><line style="stroke:#181818;stroke-width:1.0;" x1="680.72" x2="672.72" y1="298.2188" y2="298.2188"/><polygon fill="none" points="651.04,298.2188,657.04,302.2188,663.04,298.2188,657.04,294.2188,651.04,298.2188" style="stroke:#181818;stroke-width:1.0;"/></g><rect height="50.3125" style="stroke:#00000000;stroke-width:1.0;fill:none;" width="394" x="527" y="520.2188"/><text fill="#888888" font-family="sans-serif" font-size="10" lengthAdjust="spacing" textLength="3" x="722.5" y="530.5996"> </text><text fill="#888888" font-family="sans-serif" font-size="10" lengthAdjust="spacing" textLength="3" x="722.5" y="543.1777"> </text><text fill="#888888" font-family="sans-serif" font-size="10" lengthAdjust="spacing" textLength="392" x="528" y="555.7559">PlantUML diagram generated by SketchIt! (https://bitbucket.org/pmesmeur/sketch.it)</text><text fill="#888888" font-family="sans-serif" font-size="10" lengthAdjust="spacing" textLength="394" x="527" y="568.334">For more information about this tool, please contact philippe.mesmeur@gmail.com</text><!--MD5=[1c49324602201da8689bb8ae8477e04a]
@startuml

title __KVV class diagram__\n

  namespace com.main.dhbworld.KVV {
    class com.main.dhbworld.KVV.KVVActivity {
        ~ departures : ArrayList<Departure>
        ~ localDateTime : LocalDateTime
        ~ progressIndicator : CircularProgressIndicator
        ~ recyclerView : RecyclerView
        ~ refreshButton : MaterialButton
        ~ textViewDepartureDateSelect : TextView
        ~ textViewDepartureTimeSelect : TextView
        ~ tramDepartureDateSelectCardView : MaterialCardView
        ~ tramDepartureTimeSelectCardView : MaterialCardView
        ~ tramDisruptionCardView : MaterialCardView
        ~ tramDisruptionTitle : TextView
        + onDataLoaded()
        # onCreate()
        - dateSelectClick()
        - initViews()
        - refresh()
        - setupAdapter()
        - setupClickListeners()
        - setupTextViews()
        - timeSelectClick()
    }

    note left : Uses ArrayList of Departues\ninstead of just one departure object

  }
      namespace com.main.dhbworld.KVV {
        class com.main.dhbworld.KVV.Departure {
            - attribute : String
            - departureTime : LocalDateTime
            - destination : String
            - line : String
            - notServiced : boolean
            - platform : String
            + Departure()
            + getAttribute()
            + getDepartureTime()
            + getDestination()
            + getLine()
            + getPlatform()
            + isNotServiced()
        }
      }

    com.main.dhbworld.KVV.KVVActivity o-> com.main.dhbworld.KVV.Departure


right footer


PlantUML diagram generated by SketchIt! (https://bitbucket.org/pmesmeur/sketch.it)
For more information about this tool, please contact philippe.mesmeur@gmail.com
endfooter

@enduml

PlantUML version 1.2022.4(Sat Apr 09 15:29:17 CEST 2022)
(GPL source distribution)
Java Runtime: OpenJDK Runtime Environment
JVM: OpenJDK 64-Bit Server VM
Default Encoding: Cp1252
Language: de
Country: DE
--></g></svg>