<?xml version="1.0" encoding="UTF-8" standalone="no"?><svg xmlns="http://www.w3.org/2000/svg" xmlns:xlink="http://www.w3.org/1999/xlink" contentScriptType="application/ecmascript" contentStyleType="text/css" height="628px" preserveAspectRatio="none" style="width:402px;height:628px;background:#FFFFFF;" version="1.1" viewBox="0 0 402 628" width="402px" zoomAndPan="magnify"><defs><filter height="300%" id="fcze298r2zefa" width="300%" x="-1" y="-1"><feGaussianBlur result="blurOut" stdDeviation="2.0"/><feColorMatrix in="blurOut" result="blurOut2" type="matrix" values="0 0 0 0 0 0 0 0 0 0 0 0 0 0 0 0 0 0 .4 0"/><feOffset dx="4.0" dy="4.0" in="blurOut2" result="blurOut3"/><feBlend in="SourceGraphic" in2="blurOut3" mode="normal"/></filter></defs><g><text fill="#000000" font-family="sans-serif" font-size="18" lengthAdjust="spacing" text-decoration="underline" textLength="239" x="77.5" y="18.6855">DHBWORLD's Class Diagram</text><text fill="#000000" font-family="sans-serif" font-size="18" lengthAdjust="spacing" textLength="0" x="199.5" y="41.3262"/><!--MD5=[c7b10449cb9d187a092a85169fd55a87]
cluster com.main.dhbworld--><polygon fill="#FFFFFF" filter="url(#fcze298r2zefa)" points="88.5,175.2813,230.5,175.2813,237.5,198.8906,302.5,198.8906,302.5,566.2813,88.5,566.2813,88.5,175.2813" style="stroke:#000000;stroke-width:1.5;"/><line style="stroke:#000000;stroke-width:1.5;" x1="88.5" x2="237.5" y1="198.8906" y2="198.8906"/><text fill="#000000" font-family="sans-serif" font-size="14" font-weight="bold" lengthAdjust="spacing" textLength="136" x="92.5" y="191.8145">com.main.dhbworld</text><!--MD5=[514ff022cafc989a2e3690be0e6f403f]
cluster android.view.View--><polygon fill="#FFFFFF" filter="url(#fcze298r2zefa)" points="20.5,51.2813,154.5,51.2813,161.5,74.8906,172.5,74.8906,172.5,151.2813,20.5,151.2813,20.5,51.2813" style="stroke:#000000;stroke-width:1.5;"/><line style="stroke:#000000;stroke-width:1.5;" x1="20.5" x2="161.5" y1="74.8906" y2="74.8906"/><text fill="#000000" font-family="sans-serif" font-size="14" font-weight="bold" lengthAdjust="spacing" textLength="128" x="24.5" y="67.8145">android.view.View</text><!--MD5=[5a11439e6a9c928fb0d5ec822813d7c6]
cluster androidx.appcompat.app--><polygon fill="#FFFFFF" filter="url(#fcze298r2zefa)" points="196.5,51.2813,375.5,51.2813,382.5,74.8906,385.5,74.8906,385.5,151.2813,196.5,151.2813,196.5,51.2813" style="stroke:#000000;stroke-width:1.5;"/><line style="stroke:#000000;stroke-width:1.5;" x1="196.5" x2="382.5" y1="74.8906" y2="74.8906"/><text fill="#000000" font-family="sans-serif" font-size="14" font-weight="bold" lengthAdjust="spacing" textLength="173" x="200.5" y="67.8145">androidx.appcompat.app</text><!--MD5=[b7b5b27735d08f5de50be3e79ca17da1]
class com.main.dhbworld.MainActivity--><rect codeLine="5" fill="#FEFECE" filter="url(#fcze298r2zefa)" height="338.5547" id="com.main.dhbworld.MainActivity" style="stroke:#A80036;stroke-width:1.5;" width="182" x="104.5" y="211.2813"/><ellipse cx="160.75" cy="227.2813" fill="#ADD1B2" rx="11" ry="11" style="stroke:#A80036;stroke-width:1.0;"/><path d="M162.75,223.7813 Q162.9531,223.2813 163.1875,223.0313 Q163.4219,222.7813 163.6875,222.7813 Q164.1563,222.7813 164.4531,223.0625 Q164.75,223.3438 164.75,224 L164.75,225.5625 Q164.75,226.2188 164.4688,226.5 Q164.1875,226.7813 163.75,226.7813 Q163.3594,226.7813 163.1094,226.6094 Q162.8594,226.4375 162.75,225.9844 Q162.7031,225.6719 162.5313,225.5 Q162.2188,225.1719 161.6563,224.9844 Q161.0938,224.7813 160.5313,224.7813 Q159.8281,224.7813 159.2344,225.0625 Q158.6563,225.3438 158.2031,225.9688 Q157.75,226.5938 157.75,227.4531 L157.75,228.375 Q157.75,229.4063 158.5938,230.0938 Q159.4375,230.7813 160.9375,230.7813 Q161.8281,230.7813 162.4531,230.5781 Q162.8125,230.4688 163.2188,230.1094 Q163.4844,229.9063 163.625,229.8438 Q163.7656,229.7813 163.9375,229.7813 Q164.2656,229.7813 164.5,230.0469 Q164.75,230.2969 164.75,230.6563 Q164.75,231 164.4063,231.4063 Q163.9063,232 163.1094,232.3281 Q162.0625,232.7813 160.7813,232.7813 Q159.2813,232.7813 158.0781,232.1875 Q157.1094,231.7188 156.4219,230.7031 Q155.75,229.6875 155.75,228.4844 L155.75,227.3906 Q155.75,226.1406 156.3438,225.0469 Q156.9531,223.9531 158,223.375 Q159.0625,222.7813 160.25,222.7813 Q160.9688,222.7813 161.5938,223.0313 Q162.2188,223.2813 162.75,223.7813 Z " fill="#000000"/><text fill="#000000" font-family="sans-serif" font-size="12" lengthAdjust="spacing" textLength="61" x="181.25" y="232.1914">MainActivity</text><line style="stroke:#A80036;stroke-width:1.5;" x1="105.5" x2="285.5" y1="243.2813" y2="243.2813"/><ellipse cx="115.5" cy="254.2813" rx="3" ry="3" style="stroke:#038048;stroke-width:1.0;fill:none;"/><text fill="#000000" font-family="sans-serif" font-size="11" lengthAdjust="spacing" text-decoration="underline" textLength="87" x="124.5" y="258.7002">FreeNotes : String</text><ellipse cx="115.5" cy="268.1172" rx="3" ry="3" style="stroke:#038048;stroke-width:1.0;fill:none;"/><text fill="#000000" font-family="sans-serif" font-size="11" lengthAdjust="spacing" text-decoration="underline" textLength="108" x="124.5" y="272.5361">LibraryNumber : String</text><ellipse cx="115.5" cy="281.9531" rx="3" ry="3" style="stroke:#038048;stroke-width:1.0;fill:none;"/><text fill="#000000" font-family="sans-serif" font-size="11" lengthAdjust="spacing" text-decoration="underline" textLength="134" x="124.5" y="286.3721">MatriculationNumber : String</text><ellipse cx="115.5" cy="295.7891" rx="3" ry="3" style="stroke:#038048;stroke-width:1.0;fill:none;"/><text fill="#000000" font-family="sans-serif" font-size="11" lengthAdjust="spacing" text-decoration="underline" textLength="122" x="124.5" y="300.208">MyPREFERENCES : String</text><ellipse cx="115.5" cy="309.625" rx="3" ry="3" style="stroke:#038048;stroke-width:1.0;fill:none;"/><text fill="#000000" font-family="sans-serif" font-size="11" lengthAdjust="spacing" text-decoration="underline" textLength="64" x="124.5" y="314.0439">Name : String</text><ellipse cx="115.5" cy="323.4609" rx="3" ry="3" style="stroke:#038048;stroke-width:1.0;fill:none;"/><text fill="#000000" font-family="sans-serif" font-size="11" lengthAdjust="spacing" text-decoration="underline" textLength="92" x="124.5" y="327.8799">StudentMail : String</text><polygon fill="none" points="115.5,333.2969,111.5,339.2969,119.5,339.2969" style="stroke:#1963A0;stroke-width:1.0;"/><text fill="#000000" font-family="sans-serif" font-size="11" lengthAdjust="spacing" textLength="140" x="124.5" y="341.7158">cancelButton : MaterialButton</text><polygon fill="none" points="115.5,347.1328,111.5,353.1328,119.5,353.1328" style="stroke:#1963A0;stroke-width:1.0;"/><text fill="#000000" font-family="sans-serif" font-size="11" lengthAdjust="spacing" textLength="156" x="124.5" y="355.5518">editButton : FloatingActionButton</text><polygon fill="none" points="115.5,360.9688,111.5,366.9688,119.5,366.9688" style="stroke:#1963A0;stroke-width:1.0;"/><text fill="#000000" font-family="sans-serif" font-size="11" lengthAdjust="spacing" textLength="104" x="124.5" y="369.3877">freeNotes : TextView</text><polygon fill="none" points="115.5,374.8047,111.5,380.8047,119.5,380.8047" style="stroke:#1963A0;stroke-width:1.0;"/><text fill="#000000" font-family="sans-serif" font-size="11" lengthAdjust="spacing" textLength="95" x="124.5" y="383.2236">lNumber : TextView</text><polygon fill="none" points="115.5,388.6406,111.5,394.6406,119.5,394.6406" style="stroke:#1963A0;stroke-width:1.0;"/><text fill="#000000" font-family="sans-serif" font-size="11" lengthAdjust="spacing" textLength="101" x="124.5" y="397.0596">mNumber : TextView</text><polygon fill="none" points="115.5,402.4766,111.5,408.4766,119.5,408.4766" style="stroke:#1963A0;stroke-width:1.0;"/><text fill="#000000" font-family="sans-serif" font-size="11" lengthAdjust="spacing" textLength="82" x="124.5" y="410.8955">name : TextView</text><polygon fill="none" points="115.5,416.3125,111.5,422.3125,119.5,422.3125" style="stroke:#1963A0;stroke-width:1.0;"/><text fill="#000000" font-family="sans-serif" font-size="11" lengthAdjust="spacing" textLength="132" x="124.5" y="424.7314">saveButton : MaterialButton</text><polygon fill="none" points="115.5,430.1484,111.5,436.1484,119.5,436.1484" style="stroke:#1963A0;stroke-width:1.0;"/><text fill="#000000" font-family="sans-serif" font-size="11" lengthAdjust="spacing" textLength="116" x="124.5" y="438.5674">sp : SharedPreferences</text><polygon fill="none" points="115.5,443.9844,111.5,449.9844,119.5,449.9844" style="stroke:#1963A0;stroke-width:1.0;"/><text fill="#000000" font-family="sans-serif" font-size="11" lengthAdjust="spacing" textLength="110" x="124.5" y="452.4033">studentMail : TextView</text><line style="stroke:#A80036;stroke-width:1.5;" x1="105.5" x2="285.5" y1="458.8203" y2="458.8203"/><ellipse cx="115.5" cy="469.8203" fill="#84BE84" rx="3" ry="3" style="stroke:#038048;stroke-width:1.0;"/><text fill="#000000" font-family="sans-serif" font-size="11" lengthAdjust="spacing" textLength="80" x="124.5" y="474.2393">checkLNumber()</text><ellipse cx="115.5" cy="483.6563" fill="#84BE84" rx="3" ry="3" style="stroke:#038048;stroke-width:1.0;"/><text fill="#000000" font-family="sans-serif" font-size="11" lengthAdjust="spacing" textLength="82" x="124.5" y="488.0752">checkMNumber()</text><ellipse cx="115.5" cy="497.4922" fill="#84BE84" rx="3" ry="3" style="stroke:#038048;stroke-width:1.0;"/><text fill="#000000" font-family="sans-serif" font-size="11" lengthAdjust="spacing" textLength="104" x="124.5" y="501.9111">loadAndUpdateData()</text><ellipse cx="115.5" cy="511.3281" fill="#84BE84" rx="3" ry="3" style="stroke:#038048;stroke-width:1.0;"/><text fill="#000000" font-family="sans-serif" font-size="11" lengthAdjust="spacing" textLength="42" x="124.5" y="515.7471">onClick()</text><ellipse cx="115.5" cy="525.1641" fill="#84BE84" rx="3" ry="3" style="stroke:#038048;stroke-width:1.0;"/><text fill="#000000" font-family="sans-serif" font-size="11" lengthAdjust="spacing" textLength="54" x="124.5" y="529.583">saveData()</text><polygon fill="#FFFF44" points="115.5,534,119.5,538,115.5,542,111.5,538" style="stroke:#B38D22;stroke-width:1.0;"/><text fill="#000000" font-family="sans-serif" font-size="11" lengthAdjust="spacing" textLength="52" x="124.5" y="543.4189">onCreate()</text><!--MD5=[0858b9b1d3aeed662d763a216cd7b05a]
class android.view.View.OnClickListener--><rect fill="#FEFECE" filter="url(#fcze298r2zefa)" height="48" id="android.view.View.OnClickListener" style="stroke:#A80036;stroke-width:1.5;" width="120" x="36.5" y="87.2813"/><ellipse cx="51.5" cy="103.2813" fill="#ADD1B2" rx="11" ry="11" style="stroke:#A80036;stroke-width:1.0;"/><path d="M53.5,99.7813 Q53.7031,99.2813 53.9375,99.0313 Q54.1719,98.7813 54.4375,98.7813 Q54.9063,98.7813 55.2031,99.0625 Q55.5,99.3438 55.5,100 L55.5,101.5625 Q55.5,102.2188 55.2188,102.5 Q54.9375,102.7813 54.5,102.7813 Q54.1094,102.7813 53.8594,102.6094 Q53.6094,102.4375 53.5,101.9844 Q53.4531,101.6719 53.2813,101.5 Q52.9688,101.1719 52.4063,100.9844 Q51.8438,100.7813 51.2813,100.7813 Q50.5781,100.7813 49.9844,101.0625 Q49.4063,101.3438 48.9531,101.9688 Q48.5,102.5938 48.5,103.4531 L48.5,104.375 Q48.5,105.4063 49.3438,106.0938 Q50.1875,106.7813 51.6875,106.7813 Q52.5781,106.7813 53.2031,106.5781 Q53.5625,106.4688 53.9688,106.1094 Q54.2344,105.9063 54.375,105.8438 Q54.5156,105.7813 54.6875,105.7813 Q55.0156,105.7813 55.25,106.0469 Q55.5,106.2969 55.5,106.6563 Q55.5,107 55.1563,107.4063 Q54.6563,108 53.8594,108.3281 Q52.8125,108.7813 51.5313,108.7813 Q50.0313,108.7813 48.8281,108.1875 Q47.8594,107.7188 47.1719,106.7031 Q46.5,105.6875 46.5,104.4844 L46.5,103.3906 Q46.5,102.1406 47.0938,101.0469 Q47.7031,99.9531 48.75,99.375 Q49.8125,98.7813 51,98.7813 Q51.7188,98.7813 52.3438,99.0313 Q52.9688,99.2813 53.5,99.7813 Z " fill="#000000"/><text fill="#000000" font-family="sans-serif" font-size="12" lengthAdjust="spacing" textLength="88" x="65.5" y="108.1914">OnClickListener</text><line style="stroke:#A80036;stroke-width:1.5;" x1="37.5" x2="155.5" y1="119.2813" y2="119.2813"/><line style="stroke:#A80036;stroke-width:1.5;" x1="37.5" x2="155.5" y1="127.2813" y2="127.2813"/><!--MD5=[6971ca23cf0557f0436b13ef124bfeb7]
class androidx.appcompat.app.AppCompatActivity--><rect fill="#FEFECE" filter="url(#fcze298r2zefa)" height="48" id="androidx.appcompat.app.AppCompatActivity" style="stroke:#A80036;stroke-width:1.5;" width="132" x="212.5" y="87.2813"/><ellipse cx="227.5" cy="103.2813" fill="#ADD1B2" rx="11" ry="11" style="stroke:#A80036;stroke-width:1.0;"/><path d="M229.5,99.7813 Q229.7031,99.2813 229.9375,99.0313 Q230.1719,98.7813 230.4375,98.7813 Q230.9063,98.7813 231.2031,99.0625 Q231.5,99.3438 231.5,100 L231.5,101.5625 Q231.5,102.2188 231.2188,102.5 Q230.9375,102.7813 230.5,102.7813 Q230.1094,102.7813 229.8594,102.6094 Q229.6094,102.4375 229.5,101.9844 Q229.4531,101.6719 229.2813,101.5 Q228.9688,101.1719 228.4063,100.9844 Q227.8438,100.7813 227.2813,100.7813 Q226.5781,100.7813 225.9844,101.0625 Q225.4063,101.3438 224.9531,101.9688 Q224.5,102.5938 224.5,103.4531 L224.5,104.375 Q224.5,105.4063 225.3438,106.0938 Q226.1875,106.7813 227.6875,106.7813 Q228.5781,106.7813 229.2031,106.5781 Q229.5625,106.4688 229.9688,106.1094 Q230.2344,105.9063 230.375,105.8438 Q230.5156,105.7813 230.6875,105.7813 Q231.0156,105.7813 231.25,106.0469 Q231.5,106.2969 231.5,106.6563 Q231.5,107 231.1563,107.4063 Q230.6563,108 229.8594,108.3281 Q228.8125,108.7813 227.5313,108.7813 Q226.0313,108.7813 224.8281,108.1875 Q223.8594,107.7188 223.1719,106.7031 Q222.5,105.6875 222.5,104.4844 L222.5,103.3906 Q222.5,102.1406 223.0938,101.0469 Q223.7031,99.9531 224.75,99.375 Q225.8125,98.7813 227,98.7813 Q227.7188,98.7813 228.3438,99.0313 Q228.9688,99.2813 229.5,99.7813 Z " fill="#000000"/><text fill="#000000" font-family="sans-serif" font-size="12" lengthAdjust="spacing" textLength="100" x="241.5" y="108.1914">AppCompatActivity</text><line style="stroke:#A80036;stroke-width:1.5;" x1="213.5" x2="343.5" y1="119.2813" y2="119.2813"/><line style="stroke:#A80036;stroke-width:1.5;" x1="213.5" x2="343.5" y1="127.2813" y2="127.2813"/><!--MD5=[450d5fc90f810affb0125d35902ed999]
reverse link android.view.View.OnClickListener to com.main.dhbworld.MainActivity--><path codeLine="32" d="M112.07,154.3413 C118.05,170.5213 125.32,190.1513 133.04,211.0113 " fill="none" id="android.view.View.OnClickListener-backto-com.main.dhbworld.MainActivity" style="stroke:#A80036;stroke-width:1.0;stroke-dasharray:7.0,7.0;"/><polygon fill="none" points="105.49,156.7412,105.11,135.5512,118.62,151.8813,105.49,156.7412" style="stroke:#A80036;stroke-width:1.0;"/><!--MD5=[afe7076dba6ab8b25c63252923f7462b]
reverse link androidx.appcompat.app.AppCompatActivity to com.main.dhbworld.MainActivity--><path codeLine="33" d="M265.28,154.8813 C260.29,170.9613 254.27,190.3913 247.87,211.0113 " fill="none" id="androidx.appcompat.app.AppCompatActivity-backto-com.main.dhbworld.MainActivity" style="stroke:#A80036;stroke-width:1.0;"/><polygon fill="none" points="258.67,152.5813,271.28,135.5512,272.04,156.7313,258.67,152.5813" style="stroke:#A80036;stroke-width:1.0;"/><text fill="#888888" font-family="sans-serif" font-size="10" lengthAdjust="spacing" textLength="0" x="394" y="582.6621"/><text fill="#888888" font-family="sans-serif" font-size="10" lengthAdjust="spacing" textLength="0" x="394" y="595.2402"/><text fill="#888888" font-family="sans-serif" font-size="10" lengthAdjust="spacing" textLength="392" x="2" y="607.8184">PlantUML diagram generated by SketchIt! (https://bitbucket.org/pmesmeur/sketch.it)</text><text fill="#888888" font-family="sans-serif" font-size="10" lengthAdjust="spacing" textLength="394" x="0" y="620.3965">For more information about this tool, please contact philippe.mesmeur@gmail.com</text><!--MD5=[4edd047304f4349da6bf113a73b26dae]
@startuml

title __DHBWORLD's Class Diagram__\n

  namespace com.main.dhbworld {
    class com.main.dhbworld.MainActivity {
        {static} + FreeNotes : String
        {static} + LibraryNumber : String
        {static} + MatriculationNumber : String
        {static} + MyPREFERENCES : String
        {static} + Name : String
        {static} + StudentMail : String
        ~ cancelButton : MaterialButton
        ~ editButton : FloatingActionButton
        ~ freeNotes : TextView
        ~ lNumber : TextView
        ~ mNumber : TextView
        ~ name : TextView
        ~ saveButton : MaterialButton
        ~ sp : SharedPreferences
        ~ studentMail : TextView
        + checkLNumber()
        + checkMNumber()
        + loadAndUpdateData()
        + onClick()
        + saveData()
        # onCreate()
    }
  }

  

  com.main.dhbworld.MainActivity .up.|> android.view.View.OnClickListener
  com.main.dhbworld.MainActivity -up-|> androidx.appcompat.app.AppCompatActivity


right footer


PlantUML diagram generated by SketchIt! (https://bitbucket.org/pmesmeur/sketch.it)
For more information about this tool, please contact philippe.mesmeur@gmail.com
endfooter

@enduml

PlantUML version 1.2021.11(Sat Oct 02 15:26:11 CEST 2021)
(GPL source distribution)
Java Runtime: OpenJDK Runtime Environment
JVM: OpenJDK 64-Bit Server VM
Default Encoding: Cp1252
Language: de
Country: DE
--></g></svg>